<svg width="22px" height="20px" viewBox="0 0 22 20" version="1.1" xmlns="http://www.w3.org/2000/svg" xmlns:xlink="http://www.w3.org/1999/xlink" xmlns:sketch="http://www.bohemiancoding.com/sketch/ns">
    <!-- Generator: Sketch 3.4.2 (15855) - http://www.bohemiancoding.com/sketch -->
    <title>Oval 19</title>
    <desc>Created with Sketch.</desc>
    <defs></defs>
    <g id="Page-1" stroke="none" stroke-width="1" fill="none" fill-rule="evenodd" sketch:type="MSPage">
        <path d="M19.2807443,14.7665529 C18.4985325,15.490102 15.9534388,17.1245295 19.625173,19.5923533 C18.089478,20.149211 15.7961794,19.6509458 13.9557471,18.1414086 C13.2990741,17.6028003 11.8234978,17.8095238 11,17.8095238 C4.92486775,17.8095238 0,13.8227261 0,8.9047619 C0,3.9867977 4.92486775,0 11,0 C17.0751322,0 22,3.9867977 22,8.9047619 C22,11.1495584 20.9739281,13.200351 19.2807443,14.7665529 Z M7.30576172,10.0525391 C7.30576172,9.91288993 7.24829159,9.80654333 7.13334961,9.73349609 C7.01840763,9.66044885 6.82773571,9.59599637 6.56132813,9.54013672 C6.29492054,9.48427706 6.07255949,9.41337934 5.89423828,9.32744141 C5.5032207,9.13837796 5.30771484,8.86445492 5.30771484,8.50566406 C5.30771484,8.20488131 5.43447139,7.95351663 5.68798828,7.7515625 C5.94150517,7.54960837 6.26376758,7.44863281 6.65478516,7.44863281 C7.07158412,7.44863281 7.40834833,7.55175678 7.66508789,7.75800781 C7.92182746,7.96425884 8.05019531,8.23173664 8.05019531,8.56044922 L7.26708984,8.56044922 C7.26708984,8.41005784 7.21123103,8.28491261 7.09951172,8.18500977 C6.98779241,8.08510692 6.83955171,8.03515625 6.65478516,8.03515625 C6.4829093,8.03515625 6.34272515,8.07490195 6.23422852,8.15439453 C6.12573188,8.23388712 6.07148437,8.34023371 6.07148437,8.4734375 C6.07148437,8.5937506 6.12197215,8.6872067 6.22294922,8.75380859 C6.32392629,8.82041049 6.52802581,8.88754849 6.83525391,8.95522461 C7.142482,9.02290073 7.3836417,9.10346633 7.55874023,9.19692383 C7.73383877,9.29038133 7.86381794,9.40263606 7.94868164,9.53369141 C8.03354535,9.66474675 8.07597656,9.82372953 8.07597656,10.0106445 C8.07597656,10.324318 7.94599739,10.5783682 7.68603516,10.7728027 C7.42607292,10.9672373 7.08554898,11.0644531 6.66445312,11.0644531 C6.37870951,11.0644531 6.12412221,11.0128911 5.90068359,10.9097656 C5.67724498,10.8066401 5.50322328,10.6648447 5.37861328,10.484375 C5.25400328,10.3039053 5.19169922,10.1094737 5.19169922,9.90107422 L5.95224609,9.90107422 C5.96298833,10.0858408 6.03281186,10.2281733 6.16171875,10.3280762 C6.29062564,10.427979 6.46142472,10.4779297 6.67412109,10.4779297 C6.88037212,10.4779297 7.03720649,10.4387211 7.14462891,10.3603027 C7.25205132,10.2818844 7.30576172,10.1792975 7.30576172,10.0525391 Z M9.49394531,7.51308594 L9.51650391,7.87724609 C9.76142701,7.59150248 10.0965799,7.44863281 10.5219727,7.44863281 C10.9881859,7.44863281 11.3072257,7.62695134 11.4791016,7.98359375 C11.7326185,7.62695134 12.0892555,7.44863281 12.5490234,7.44863281 C12.9335957,7.44863281 13.2198721,7.55497941 13.4078613,7.76767578 C13.5958505,7.98037216 13.6919922,8.2940409 13.6962891,8.70869141 L13.6962891,11 L12.9131836,11 L12.9131836,8.73125 C12.9131836,8.50995983 12.8648442,8.34775442 12.7681641,8.24462891 C12.6714839,8.14150339 12.5114269,8.08994141 12.2879883,8.08994141 C12.1096671,8.08994141 11.9641119,8.13774366 11.8513184,8.23334961 C11.7385248,8.32895556 11.6595705,8.45410079 11.6144531,8.60878906 L11.6176758,11 L10.8345703,11 L10.8345703,8.70546875 C10.8238281,8.29511514 10.6143575,8.08994141 10.2061523,8.08994141 C9.8924789,8.08994141 9.67011784,8.21777216 9.5390625,8.4734375 L9.5390625,11 L8.75595703,11 L8.75595703,7.51308594 L9.49394531,7.51308594 Z M16.4548828,10.0525391 C16.4548828,9.91288993 16.3974127,9.80654333 16.2824707,9.73349609 C16.1675287,9.66044885 15.9768568,9.59599637 15.7104492,9.54013672 C15.4440416,9.48427706 15.2216806,9.41337934 15.0433594,9.32744141 C14.6523418,9.13837796 14.4568359,8.86445492 14.4568359,8.50566406 C14.4568359,8.20488131 14.5835925,7.95351663 14.8371094,7.7515625 C15.0906263,7.54960837 15.4128887,7.44863281 15.8039063,7.44863281 C16.2207052,7.44863281 16.5574694,7.55175678 16.814209,7.75800781 C17.0709485,7.96425884 17.1993164,8.23173664 17.1993164,8.56044922 L16.4162109,8.56044922 C16.4162109,8.41005784 16.3603521,8.28491261 16.2486328,8.18500977 C16.1369135,8.08510692 15.9886728,8.03515625 15.8039063,8.03515625 C15.6320304,8.03515625 15.4918462,8.07490195 15.3833496,8.15439453 C15.274853,8.23388712 15.2206055,8.34023371 15.2206055,8.4734375 C15.2206055,8.5937506 15.2710932,8.6872067 15.3720703,8.75380859 C15.4730474,8.82041049 15.6771469,8.88754849 15.984375,8.95522461 C16.2916031,9.02290073 16.5327628,9.10346633 16.7078613,9.19692383 C16.8829599,9.29038133 17.012939,9.40263606 17.0978027,9.53369141 C17.1826664,9.66474675 17.2250977,9.82372953 17.2250977,10.0106445 C17.2250977,10.324318 17.0951185,10.5783682 16.8351563,10.7728027 C16.575194,10.9672373 16.2346701,11.0644531 15.8135742,11.0644531 C15.5278306,11.0644531 15.2732433,11.0128911 15.0498047,10.9097656 C14.8263661,10.8066401 14.6523444,10.6648447 14.5277344,10.484375 C14.4031244,10.3039053 14.3408203,10.1094737 14.3408203,9.90107422 L15.1013672,9.90107422 C15.1121094,10.0858408 15.1819329,10.2281733 15.3108398,10.3280762 C15.4397467,10.427979 15.6105458,10.4779297 15.8232422,10.4779297 C16.0294932,10.4779297 16.1863276,10.4387211 16.29375,10.3603027 C16.4011724,10.2818844 16.4548828,10.1792975 16.4548828,10.0525391 L16.4548828,10.0525391 Z" id="Oval-19" fill="#AAAAAA" sketch:type="MSShapeGroup"></path>
    </g>
</svg>